<svg width="213" height="24" viewBox="0 0 213 24" fill="none" xmlns="http://www.w3.org/2000/svg">
<path d="M38.068 11.35V8.344H40.714C40.966 8.344 41.206 8.368 41.434 8.416C41.674 8.452 41.884 8.524 42.064 8.632C42.244 8.74 42.388 8.89 42.496 9.082C42.604 9.274 42.658 9.52 42.658 9.82C42.658 10.36 42.496 10.75 42.172 10.99C41.848 11.23 41.434 11.35 40.93 11.35H38.068ZM35.242 6.148V19H41.47C42.046 19 42.604 18.928 43.144 18.784C43.696 18.64 44.182 18.418 44.602 18.118C45.034 17.818 45.376 17.434 45.628 16.966C45.88 16.486 46.006 15.922 46.006 15.274C46.006 14.47 45.808 13.786 45.412 13.222C45.028 12.646 44.44 12.244 43.648 12.016C44.224 11.74 44.656 11.386 44.944 10.954C45.244 10.522 45.394 9.982 45.394 9.334C45.394 8.734 45.292 8.23 45.088 7.822C44.896 7.414 44.62 7.09 44.26 6.85C43.9 6.598 43.468 6.418 42.964 6.31C42.46 6.202 41.902 6.148 41.29 6.148H35.242ZM38.068 16.804V13.276H41.146C41.758 13.276 42.25 13.42 42.622 13.708C42.994 13.984 43.18 14.452 43.18 15.112C43.18 15.448 43.12 15.724 43 15.94C42.892 16.156 42.742 16.33 42.55 16.462C42.358 16.582 42.136 16.672 41.884 16.732C41.632 16.78 41.368 16.804 41.092 16.804H38.068ZM50.8138 14.356C50.8138 13.984 50.8498 13.618 50.9218 13.258C50.9938 12.898 51.1138 12.58 51.2818 12.304C51.4618 12.028 51.6958 11.806 51.9838 11.638C52.2718 11.458 52.6318 11.368 53.0638 11.368C53.4958 11.368 53.8558 11.458 54.1438 11.638C54.4438 11.806 54.6778 12.028 54.8458 12.304C55.0258 12.58 55.1518 12.898 55.2238 13.258C55.2958 13.618 55.3318 13.984 55.3318 14.356C55.3318 14.728 55.2958 15.094 55.2238 15.454C55.1518 15.802 55.0258 16.12 54.8458 16.408C54.6778 16.684 54.4438 16.906 54.1438 17.074C53.8558 17.242 53.4958 17.326 53.0638 17.326C52.6318 17.326 52.2718 17.242 51.9838 17.074C51.6958 16.906 51.4618 16.684 51.2818 16.408C51.1138 16.12 50.9938 15.802 50.9218 15.454C50.8498 15.094 50.8138 14.728 50.8138 14.356ZM48.2578 14.356C48.2578 15.1 48.3718 15.772 48.5998 16.372C48.8278 16.972 49.1518 17.488 49.5718 17.92C49.9918 18.34 50.4958 18.664 51.0838 18.892C51.6718 19.12 52.3318 19.234 53.0638 19.234C53.7958 19.234 54.4558 19.12 55.0438 18.892C55.6438 18.664 56.1538 18.34 56.5738 17.92C56.9938 17.488 57.3178 16.972 57.5458 16.372C57.7738 15.772 57.8878 15.1 57.8878 14.356C57.8878 13.612 57.7738 12.94 57.5458 12.34C57.3178 11.728 56.9938 11.212 56.5738 10.792C56.1538 10.36 55.6438 10.03 55.0438 9.802C54.4558 9.562 53.7958 9.442 53.0638 9.442C52.3318 9.442 51.6718 9.562 51.0838 9.802C50.4958 10.03 49.9918 10.36 49.5718 10.792C49.1518 11.212 48.8278 11.728 48.5998 12.34C48.3718 12.94 48.2578 13.612 48.2578 14.356ZM62.7177 14.356C62.7177 13.984 62.7537 13.618 62.8257 13.258C62.8977 12.898 63.0177 12.58 63.1857 12.304C63.3657 12.028 63.5997 11.806 63.8877 11.638C64.1757 11.458 64.5357 11.368 64.9677 11.368C65.3997 11.368 65.7597 11.458 66.0477 11.638C66.3477 11.806 66.5817 12.028 66.7497 12.304C66.9297 12.58 67.0557 12.898 67.1277 13.258C67.1997 13.618 67.2357 13.984 67.2357 14.356C67.2357 14.728 67.1997 15.094 67.1277 15.454C67.0557 15.802 66.9297 16.12 66.7497 16.408C66.5817 16.684 66.3477 16.906 66.0477 17.074C65.7597 17.242 65.3997 17.326 64.9677 17.326C64.5357 17.326 64.1757 17.242 63.8877 17.074C63.5997 16.906 63.3657 16.684 63.1857 16.408C63.0177 16.12 62.8977 15.802 62.8257 15.454C62.7537 15.094 62.7177 14.728 62.7177 14.356ZM60.1617 14.356C60.1617 15.1 60.2757 15.772 60.5037 16.372C60.7317 16.972 61.0557 17.488 61.4757 17.92C61.8957 18.34 62.3997 18.664 62.9877 18.892C63.5757 19.12 64.2357 19.234 64.9677 19.234C65.6997 19.234 66.3597 19.12 66.9477 18.892C67.5477 18.664 68.0577 18.34 68.4777 17.92C68.8977 17.488 69.2217 16.972 69.4497 16.372C69.6777 15.772 69.7917 15.1 69.7917 14.356C69.7917 13.612 69.6777 12.94 69.4497 12.34C69.2217 11.728 68.8977 11.212 68.4777 10.792C68.0577 10.36 67.5477 10.03 66.9477 9.802C66.3597 9.562 65.6997 9.442 64.9677 9.442C64.2357 9.442 63.5757 9.562 62.9877 9.802C62.3997 10.03 61.8957 10.36 61.4757 10.792C61.0557 11.212 60.7317 11.728 60.5037 12.34C60.2757 12.94 60.1617 13.612 60.1617 14.356ZM75.5936 9.694V6.904H73.0376V9.694H71.4896V11.404H73.0376V16.894C73.0376 17.362 73.1156 17.74 73.2716 18.028C73.4276 18.316 73.6376 18.538 73.9016 18.694C74.1776 18.85 74.4896 18.952 74.8376 19C75.1976 19.06 75.5756 19.09 75.9716 19.09C76.2236 19.09 76.4816 19.084 76.7456 19.072C77.0096 19.06 77.2496 19.036 77.4656 19V17.02C77.3456 17.044 77.2196 17.062 77.0876 17.074C76.9556 17.086 76.8176 17.092 76.6736 17.092C76.2416 17.092 75.9536 17.02 75.8096 16.876C75.6656 16.732 75.5936 16.444 75.5936 16.012V11.404H77.4656V9.694H75.5936ZM81.5618 15.976H79.1318C79.1558 16.6 79.2938 17.122 79.5458 17.542C79.8098 17.95 80.1398 18.28 80.5358 18.532C80.9438 18.784 81.4058 18.964 81.9218 19.072C82.4378 19.18 82.9658 19.234 83.5058 19.234C84.0338 19.234 84.5498 19.18 85.0538 19.072C85.5698 18.976 86.0258 18.802 86.4218 18.55C86.8178 18.298 87.1358 17.968 87.3758 17.56C87.6278 17.14 87.7538 16.624 87.7538 16.012C87.7538 15.58 87.6698 15.22 87.5018 14.932C87.3338 14.632 87.1118 14.386 86.8358 14.194C86.5598 13.99 86.2418 13.828 85.8818 13.708C85.5338 13.588 85.1738 13.486 84.8018 13.402C84.4418 13.318 84.0878 13.24 83.7398 13.168C83.3918 13.096 83.0798 13.018 82.8038 12.934C82.5398 12.838 82.3238 12.718 82.1558 12.574C81.9878 12.43 81.9038 12.244 81.9038 12.016C81.9038 11.824 81.9518 11.674 82.0478 11.566C82.1438 11.446 82.2578 11.356 82.3898 11.296C82.5338 11.236 82.6898 11.2 82.8578 11.188C83.0258 11.164 83.1818 11.152 83.3258 11.152C83.7818 11.152 84.1778 11.242 84.5138 11.422C84.8498 11.59 85.0358 11.92 85.0718 12.412H87.5018C87.4538 11.836 87.3038 11.362 87.0518 10.99C86.8118 10.606 86.5058 10.3 86.1338 10.072C85.7618 9.844 85.3358 9.682 84.8558 9.586C84.3878 9.49 83.9018 9.442 83.3978 9.442C82.8938 9.442 82.4018 9.49 81.9218 9.586C81.4418 9.67 81.0098 9.826 80.6258 10.054C80.2418 10.27 79.9298 10.57 79.6898 10.954C79.4618 11.338 79.3478 11.83 79.3478 12.43C79.3478 12.838 79.4318 13.186 79.5998 13.474C79.7678 13.75 79.9898 13.984 80.2658 14.176C80.5418 14.356 80.8538 14.506 81.2018 14.626C81.5618 14.734 81.9278 14.83 82.2998 14.914C83.2118 15.106 83.9198 15.298 84.4238 15.49C84.9398 15.682 85.1978 15.97 85.1978 16.354C85.1978 16.582 85.1438 16.774 85.0358 16.93C84.9278 17.074 84.7898 17.194 84.6218 17.29C84.4658 17.374 84.2858 17.44 84.0818 17.488C83.8898 17.524 83.7038 17.542 83.5238 17.542C83.2718 17.542 83.0258 17.512 82.7858 17.452C82.5578 17.392 82.3538 17.302 82.1738 17.182C81.9938 17.05 81.8438 16.888 81.7238 16.696C81.6158 16.492 81.5618 16.252 81.5618 15.976ZM93.3897 9.694V6.904H90.8337V9.694H89.2857V11.404H90.8337V16.894C90.8337 17.362 90.9117 17.74 91.0677 18.028C91.2237 18.316 91.4337 18.538 91.6977 18.694C91.9737 18.85 92.2857 18.952 92.6337 19C92.9937 19.06 93.3717 19.09 93.7677 19.09C94.0197 19.09 94.2777 19.084 94.5417 19.072C94.8057 19.06 95.0457 19.036 95.2617 19V17.02C95.1417 17.044 95.0157 17.062 94.8837 17.074C94.7517 17.086 94.6137 17.092 94.4697 17.092C94.0377 17.092 93.7497 17.02 93.6057 16.876C93.4617 16.732 93.3897 16.444 93.3897 16.012V11.404H95.2617V9.694H93.3897ZM97.3779 9.694V19H99.9339V14.806C99.9339 14.386 99.9759 13.996 100.06 13.636C100.144 13.276 100.282 12.964 100.474 12.7C100.678 12.424 100.942 12.208 101.266 12.052C101.59 11.896 101.986 11.818 102.454 11.818C102.61 11.818 102.772 11.83 102.94 11.854C103.108 11.866 103.252 11.884 103.372 11.908V9.532C103.168 9.472 102.982 9.442 102.814 9.442C102.49 9.442 102.178 9.49 101.878 9.586C101.578 9.682 101.296 9.82 101.032 10C100.768 10.168 100.534 10.378 100.33 10.63C100.126 10.87 99.9639 11.134 99.8439 11.422H99.8079V9.694H97.3779ZM105.166 12.556C105.202 11.956 105.352 11.458 105.616 11.062C105.88 10.666 106.216 10.348 106.624 10.108C107.032 9.868 107.488 9.7 107.992 9.604C108.508 9.496 109.024 9.442 109.54 9.442C110.008 9.442 110.482 9.478 110.962 9.55C111.442 9.61 111.88 9.736 112.276 9.928C112.672 10.12 112.996 10.39 113.248 10.738C113.5 11.074 113.626 11.524 113.626 12.088V16.93C113.626 17.35 113.65 17.752 113.698 18.136C113.746 18.52 113.83 18.808 113.95 19H111.358C111.31 18.856 111.268 18.712 111.232 18.568C111.208 18.412 111.19 18.256 111.178 18.1C110.77 18.52 110.29 18.814 109.738 18.982C109.186 19.15 108.622 19.234 108.046 19.234C107.602 19.234 107.188 19.18 106.804 19.072C106.42 18.964 106.084 18.796 105.796 18.568C105.508 18.34 105.28 18.052 105.112 17.704C104.956 17.356 104.878 16.942 104.878 16.462C104.878 15.934 104.968 15.502 105.148 15.166C105.34 14.818 105.58 14.542 105.868 14.338C106.168 14.134 106.504 13.984 106.876 13.888C107.26 13.78 107.644 13.696 108.028 13.636C108.412 13.576 108.79 13.528 109.162 13.492C109.534 13.456 109.864 13.402 110.152 13.33C110.44 13.258 110.668 13.156 110.836 13.024C111.004 12.88 111.082 12.676 111.07 12.412C111.07 12.136 111.022 11.92 110.926 11.764C110.842 11.596 110.722 11.47 110.566 11.386C110.422 11.29 110.248 11.23 110.044 11.206C109.852 11.17 109.642 11.152 109.414 11.152C108.91 11.152 108.514 11.26 108.226 11.476C107.938 11.692 107.77 12.052 107.722 12.556H105.166ZM111.07 14.446C110.962 14.542 110.824 14.62 110.656 14.68C110.5 14.728 110.326 14.77 110.134 14.806C109.954 14.842 109.762 14.872 109.558 14.896C109.354 14.92 109.15 14.95 108.946 14.986C108.754 15.022 108.562 15.07 108.37 15.13C108.19 15.19 108.028 15.274 107.884 15.382C107.752 15.478 107.644 15.604 107.56 15.76C107.476 15.916 107.434 16.114 107.434 16.354C107.434 16.582 107.476 16.774 107.56 16.93C107.644 17.086 107.758 17.212 107.902 17.308C108.046 17.392 108.214 17.452 108.406 17.488C108.598 17.524 108.796 17.542 109 17.542C109.504 17.542 109.894 17.458 110.17 17.29C110.446 17.122 110.65 16.924 110.782 16.696C110.914 16.456 110.992 16.216 111.016 15.976C111.052 15.736 111.07 15.544 111.07 15.4V14.446ZM121.208 17.326C120.8 17.326 120.452 17.242 120.164 17.074C119.876 16.906 119.642 16.69 119.462 16.426C119.294 16.15 119.168 15.832 119.084 15.472C119.012 15.112 118.976 14.746 118.976 14.374C118.976 13.99 119.012 13.618 119.084 13.258C119.156 12.898 119.276 12.58 119.444 12.304C119.624 12.028 119.852 11.806 120.128 11.638C120.416 11.458 120.77 11.368 121.19 11.368C121.598 11.368 121.94 11.458 122.216 11.638C122.504 11.806 122.738 12.034 122.918 12.322C123.098 12.598 123.224 12.916 123.296 13.276C123.38 13.636 123.422 14.002 123.422 14.374C123.422 14.746 123.386 15.112 123.314 15.472C123.242 15.832 123.116 16.15 122.936 16.426C122.768 16.69 122.54 16.906 122.252 17.074C121.976 17.242 121.628 17.326 121.208 17.326ZM116.51 9.694V22.258H119.066V17.848H119.102C119.414 18.304 119.81 18.652 120.29 18.892C120.782 19.12 121.316 19.234 121.892 19.234C122.576 19.234 123.17 19.102 123.674 18.838C124.19 18.574 124.616 18.22 124.952 17.776C125.3 17.332 125.558 16.822 125.726 16.246C125.894 15.67 125.978 15.07 125.978 14.446C125.978 13.786 125.894 13.156 125.726 12.556C125.558 11.944 125.3 11.41 124.952 10.954C124.604 10.498 124.166 10.132 123.638 9.856C123.11 9.58 122.48 9.442 121.748 9.442C121.172 9.442 120.644 9.556 120.164 9.784C119.684 10.012 119.288 10.378 118.976 10.882H118.94V9.694H116.51ZM134.594 6.148V19H144.35V16.624H137.42V13.474H143.648V11.278H137.42V8.524H144.206V6.148H134.594ZM149.271 14.104L145.923 19H148.785L150.729 16.066L152.673 19H155.589L152.151 14.05L155.211 9.694H152.385L150.765 12.124L149.127 9.694H146.211L149.271 14.104ZM157.355 12.556C157.391 11.956 157.541 11.458 157.805 11.062C158.069 10.666 158.405 10.348 158.813 10.108C159.221 9.868 159.677 9.7 160.181 9.604C160.697 9.496 161.213 9.442 161.729 9.442C162.197 9.442 162.671 9.478 163.151 9.55C163.631 9.61 164.069 9.736 164.465 9.928C164.861 10.12 165.185 10.39 165.437 10.738C165.689 11.074 165.815 11.524 165.815 12.088V16.93C165.815 17.35 165.839 17.752 165.887 18.136C165.935 18.52 166.019 18.808 166.139 19H163.547C163.499 18.856 163.457 18.712 163.421 18.568C163.397 18.412 163.379 18.256 163.367 18.1C162.959 18.52 162.479 18.814 161.927 18.982C161.375 19.15 160.811 19.234 160.235 19.234C159.791 19.234 159.377 19.18 158.993 19.072C158.609 18.964 158.273 18.796 157.985 18.568C157.697 18.34 157.469 18.052 157.301 17.704C157.145 17.356 157.067 16.942 157.067 16.462C157.067 15.934 157.157 15.502 157.337 15.166C157.529 14.818 157.769 14.542 158.057 14.338C158.357 14.134 158.693 13.984 159.065 13.888C159.449 13.78 159.833 13.696 160.217 13.636C160.601 13.576 160.979 13.528 161.351 13.492C161.723 13.456 162.053 13.402 162.341 13.33C162.629 13.258 162.857 13.156 163.025 13.024C163.193 12.88 163.271 12.676 163.259 12.412C163.259 12.136 163.211 11.92 163.115 11.764C163.031 11.596 162.911 11.47 162.755 11.386C162.611 11.29 162.437 11.23 162.233 11.206C162.041 11.17 161.831 11.152 161.603 11.152C161.099 11.152 160.703 11.26 160.415 11.476C160.127 11.692 159.959 12.052 159.911 12.556H157.355ZM163.259 14.446C163.151 14.542 163.013 14.62 162.845 14.68C162.689 14.728 162.515 14.77 162.323 14.806C162.143 14.842 161.951 14.872 161.747 14.896C161.543 14.92 161.339 14.95 161.135 14.986C160.943 15.022 160.751 15.07 160.559 15.13C160.379 15.19 160.217 15.274 160.073 15.382C159.941 15.478 159.833 15.604 159.749 15.76C159.665 15.916 159.623 16.114 159.623 16.354C159.623 16.582 159.665 16.774 159.749 16.93C159.833 17.086 159.947 17.212 160.091 17.308C160.235 17.392 160.403 17.452 160.595 17.488C160.787 17.524 160.985 17.542 161.189 17.542C161.693 17.542 162.083 17.458 162.359 17.29C162.635 17.122 162.839 16.924 162.971 16.696C163.103 16.456 163.181 16.216 163.205 15.976C163.241 15.736 163.259 15.544 163.259 15.4V14.446ZM168.771 9.694V19H171.327V13.6C171.327 13.144 171.393 12.778 171.525 12.502C171.657 12.214 171.813 11.998 171.993 11.854C172.185 11.698 172.377 11.596 172.569 11.548C172.773 11.488 172.935 11.458 173.055 11.458C173.463 11.458 173.769 11.53 173.973 11.674C174.189 11.806 174.339 11.986 174.423 12.214C174.519 12.442 174.573 12.694 174.585 12.97C174.597 13.234 174.603 13.504 174.603 13.78V19H177.159V13.816C177.159 13.528 177.177 13.246 177.213 12.97C177.261 12.682 177.345 12.43 177.465 12.214C177.597 11.986 177.771 11.806 177.987 11.674C178.215 11.53 178.509 11.458 178.869 11.458C179.229 11.458 179.511 11.518 179.715 11.638C179.931 11.758 180.093 11.92 180.201 12.124C180.309 12.328 180.375 12.568 180.399 12.844C180.423 13.12 180.435 13.414 180.435 13.726V19H182.991V12.772C182.991 12.172 182.907 11.662 182.739 11.242C182.571 10.81 182.337 10.462 182.037 10.198C181.737 9.934 181.377 9.742 180.957 9.622C180.537 9.502 180.081 9.442 179.589 9.442C178.941 9.442 178.377 9.598 177.897 9.91C177.429 10.222 177.057 10.582 176.781 10.99C176.529 10.414 176.157 10.012 175.665 9.784C175.185 9.556 174.651 9.442 174.063 9.442C173.451 9.442 172.905 9.574 172.425 9.838C171.957 10.102 171.555 10.474 171.219 10.954H171.183V9.694H168.771ZM190.61 17.326C190.202 17.326 189.854 17.242 189.566 17.074C189.278 16.906 189.044 16.69 188.864 16.426C188.696 16.15 188.57 15.832 188.486 15.472C188.414 15.112 188.378 14.746 188.378 14.374C188.378 13.99 188.414 13.618 188.486 13.258C188.558 12.898 188.678 12.58 188.846 12.304C189.026 12.028 189.254 11.806 189.53 11.638C189.818 11.458 190.172 11.368 190.592 11.368C191 11.368 191.342 11.458 191.618 11.638C191.906 11.806 192.14 12.034 192.32 12.322C192.5 12.598 192.626 12.916 192.698 13.276C192.782 13.636 192.824 14.002 192.824 14.374C192.824 14.746 192.788 15.112 192.716 15.472C192.644 15.832 192.518 16.15 192.338 16.426C192.17 16.69 191.942 16.906 191.654 17.074C191.378 17.242 191.03 17.326 190.61 17.326ZM185.912 9.694V22.258H188.468V17.848H188.504C188.816 18.304 189.212 18.652 189.692 18.892C190.184 19.12 190.718 19.234 191.294 19.234C191.978 19.234 192.572 19.102 193.076 18.838C193.592 18.574 194.018 18.22 194.354 17.776C194.702 17.332 194.96 16.822 195.128 16.246C195.296 15.67 195.38 15.07 195.38 14.446C195.38 13.786 195.296 13.156 195.128 12.556C194.96 11.944 194.702 11.41 194.354 10.954C194.006 10.498 193.568 10.132 193.04 9.856C192.512 9.58 191.882 9.442 191.15 9.442C190.574 9.442 190.046 9.556 189.566 9.784C189.086 10.012 188.69 10.378 188.378 10.882H188.342V9.694H185.912ZM197.888 6.148V19H200.444V6.148H197.888ZM209.62 13.348H205.462C205.474 13.168 205.51 12.964 205.57 12.736C205.642 12.508 205.756 12.292 205.912 12.088C206.08 11.884 206.296 11.716 206.56 11.584C206.836 11.44 207.178 11.368 207.586 11.368C208.21 11.368 208.672 11.536 208.972 11.872C209.284 12.208 209.5 12.7 209.62 13.348ZM205.462 14.968H212.176C212.224 14.248 212.164 13.558 211.996 12.898C211.828 12.238 211.552 11.65 211.168 11.134C210.796 10.618 210.316 10.21 209.728 9.91C209.14 9.598 208.45 9.442 207.658 9.442C206.95 9.442 206.302 9.568 205.714 9.82C205.138 10.072 204.64 10.42 204.22 10.864C203.8 11.296 203.476 11.812 203.248 12.412C203.02 13.012 202.906 13.66 202.906 14.356C202.906 15.076 203.014 15.736 203.23 16.336C203.458 16.936 203.776 17.452 204.184 17.884C204.592 18.316 205.09 18.652 205.678 18.892C206.266 19.12 206.926 19.234 207.658 19.234C208.714 19.234 209.614 18.994 210.358 18.514C211.102 18.034 211.654 17.236 212.014 16.12H209.764C209.68 16.408 209.452 16.684 209.08 16.948C208.708 17.2 208.264 17.326 207.748 17.326C207.028 17.326 206.476 17.14 206.092 16.768C205.708 16.396 205.498 15.796 205.462 14.968Z" fill="white"/>
<path fill-rule="evenodd" clip-rule="evenodd" d="M8.16457 2.9865C6.79279 3.35528 5.42991 3.75639 4.07707 4.1895C3.95464 4.22729 3.84536 4.29886 3.76178 4.39597C3.67819 4.49308 3.6237 4.61181 3.60457 4.7385C2.80507 10.584 4.65007 14.85 6.85057 17.6595C7.95457 19.0695 9.15007 20.1135 10.1461 20.799C10.6456 21.141 11.0851 21.39 11.4316 21.549C11.6056 21.6285 11.7466 21.6825 11.8546 21.714C11.9022 21.7293 11.9508 21.7413 12.0001 21.75C12.0106 21.7485 12.0571 21.7425 12.1456 21.7155C12.2536 21.6825 12.3946 21.6285 12.5686 21.549C12.9136 21.39 13.3561 21.141 13.8541 20.799C15.103 19.9227 16.2138 18.8645 17.1496 17.6595C19.3501 14.85 21.1951 10.584 20.3956 4.7385C20.3764 4.61181 20.3219 4.49308 20.2384 4.39597C20.1548 4.29886 20.0455 4.22729 19.9231 4.1895C18.9841 3.8895 17.4001 3.4005 15.8356 2.9865C14.2366 2.565 12.7651 2.25 12.0001 2.25C11.2351 2.25 9.76507 2.565 8.16457 2.9865ZM7.78057 1.5375C9.34507 1.1235 11.0056 0.75 12.0001 0.75C12.9931 0.75 14.6551 1.1235 16.2196 1.5375C17.615 1.91216 19.0014 2.31978 20.3776 2.76C21.1696 3.012 21.7666 3.6945 21.8821 4.536C22.7416 10.8315 20.7481 15.4965 18.3316 18.5835C17.3018 19.9083 16.0792 21.0712 14.7046 22.0335C14.2266 22.3683 13.7213 22.6623 13.1941 22.9125C12.7891 23.0985 12.3571 23.25 12.0001 23.25C11.6431 23.25 11.2111 23.0985 10.8061 22.9125C10.2787 22.6626 9.77342 22.3685 9.29557 22.0335C7.92148 21.0711 6.6994 19.9082 5.67007 18.5835C3.25057 15.4965 1.25857 10.8315 2.11807 4.536C2.17554 4.12811 2.34734 3.74483 2.6136 3.43052C2.87985 3.11622 3.22967 2.88374 3.62257 2.76C4.99874 2.31979 6.38513 1.91217 7.78057 1.5375Z" fill="white"/>
<path d="M14.25 9.75C14.25 10.3467 14.0129 10.919 13.591 11.341C13.169 11.7629 12.5967 12 12 12C11.4033 12 10.831 11.7629 10.409 11.341C9.98705 10.919 9.75 10.3467 9.75 9.75C9.75 9.15326 9.98705 8.58097 10.409 8.15901C10.831 7.73705 11.4033 7.5 12 7.5C12.5967 7.5 13.169 7.73705 13.591 8.15901C14.0129 8.58097 14.25 9.15326 14.25 9.75Z" fill="white"/>
<path d="M11.1166 12.0513C11.146 11.8764 11.2365 11.7177 11.3718 11.6032C11.5072 11.4886 11.6788 11.4258 11.8561 11.4258H12.0901C12.2665 11.426 12.4372 11.4883 12.5722 11.6019C12.7071 11.7155 12.7977 11.873 12.8281 12.0468L13.3486 15.0468C13.3672 15.1545 13.362 15.265 13.3334 15.3705C13.3048 15.476 13.2535 15.574 13.183 15.6576C13.1126 15.7412 13.0247 15.8084 12.9256 15.8544C12.8264 15.9005 12.7184 15.9243 12.6091 15.9243H11.3566C11.2477 15.9242 11.1402 15.9005 11.0414 15.8547C10.9426 15.8089 10.855 15.7421 10.7847 15.659C10.7143 15.576 10.6628 15.4786 10.6339 15.3736C10.605 15.2687 10.5992 15.1587 10.6171 15.0513L11.1166 12.0513Z" fill="white"/>
</svg>
