<svg width="21" height="19" viewBox="0 0 21 19" fill="none" xmlns="http://www.w3.org/2000/svg">
<path fill-rule="evenodd" clip-rule="evenodd" d="M4.43333 8.86667C6.88179 8.86667 8.86667 6.88179 8.86667 4.43333C8.86667 1.98487 6.88179 0 4.43333 0C1.98487 0 0 1.98487 0 4.43333C0 6.88179 1.98487 8.86667 4.43333 8.86667ZM15.8333 19C18.2817 19 20.2666 17.0151 20.2666 14.5666C20.2666 12.1182 18.2817 10.1333 15.8333 10.1333C13.3848 10.1333 11.3999 12.1182 11.3999 14.5666C11.3999 17.0151 13.3848 19 15.8333 19ZM2.53327 15.8333C2.53327 16.8827 3.38393 17.7333 4.43327 17.7333C5.48261 17.7333 6.33327 16.8827 6.33327 15.8333C6.33327 14.784 5.48261 13.9333 4.43327 13.9333C3.38393 13.9333 2.53327 14.784 2.53327 15.8333ZM15.8334 3.8C14.784 3.8 13.9334 2.94934 13.9334 1.9C13.9334 0.850659 14.784 0 15.8334 0C16.8827 0 17.7334 0.850659 17.7334 1.9C17.7334 2.94934 16.8827 3.8 15.8334 3.8Z" fill="white"/>
</svg>
